<svg xmlns="http://www.w3.org/2000/svg" xmlns:xlink="http://www.w3.org/1999/xlink" width="2000" zoomAndPan="magnify" viewBox="0 0 1500 1499.999933" height="2000" preserveAspectRatio="xMidYMid meet" version="1.0"><defs><g/><clipPath id="c6e8c5c230"><path d="M 0 0 L 1490.007812 0 L 1490.007812 1500 L 0 1500 Z M 0 0 " clip-rule="nonzero"/></clipPath><clipPath id="7b47905e0f"><path d="M 75 0 L 1415.007812 0 C 1456.429688 0 1490.007812 33.578125 1490.007812 75 L 1490.007812 1425 C 1490.007812 1466.421875 1456.429688 1500 1415.007812 1500 L 75 1500 C 33.578125 1500 0 1466.421875 0 1425 L 0 75 C 0 33.578125 33.578125 0 75 0 Z M 75 0 " clip-rule="nonzero"/></clipPath><clipPath id="9e5e915381"><path d="M 0 0 L 1490.007812 0 L 1490.007812 1500 L 0 1500 Z M 0 0 " clip-rule="nonzero"/></clipPath><clipPath id="621f04a22b"><path d="M 75 0 L 1415.007812 0 C 1456.429688 0 1490.007812 33.578125 1490.007812 75 L 1490.007812 1425 C 1490.007812 1466.421875 1456.429688 1500 1415.007812 1500 L 75 1500 C 33.578125 1500 0 1466.421875 0 1425 L 0 75 C 0 33.578125 33.578125 0 75 0 Z M 75 0 " clip-rule="nonzero"/></clipPath><clipPath id="71cbdaf884"><rect x="0" width="1491" y="0" height="1500"/></clipPath></defs><g clip-path="url(#c6e8c5c230)"><g clip-path="url(#7b47905e0f)"><g transform="matrix(1, 0, 0, 1, 0, 0.000000000000112861)"><g clip-path="url(#71cbdaf884)"><g clip-path="url(#9e5e915381)"><g clip-path="url(#621f04a22b)"><path fill="#000000" d="M 0 0 L 1490.007812 0 L 1490.007812 1501.648438 L 0 1501.648438 Z M 0 0 " fill-opacity="1" fill-rule="nonzero"/></g></g></g></g></g></g><g fill="#ffffff" fill-opacity="1"><g transform="translate(407.63671, 1095.749886)"><g><path d="M 654.5 -184.125 C 654.5 -160.15625 648.101562 -136.257812 635.3125 -112.4375 C 622.53125 -88.625 604.070312 -66.804688 579.9375 -46.984375 C 555.800781 -27.171875 526.632812 -11.269531 492.4375 0.71875 C 458.238281 12.707031 419.722656 18.703125 376.890625 18.703125 C 324.140625 18.703125 276.585938 10.148438 234.234375 -6.953125 C 191.878906 -24.054688 155.753906 -48.269531 125.859375 -79.59375 C 95.972656 -110.925781 73.117188 -148.007812 57.296875 -190.84375 C 41.472656 -233.675781 33.5625 -280.664062 33.5625 -331.8125 C 33.5625 -373.050781 38.914062 -411.726562 49.625 -447.84375 C 60.332031 -483.96875 75.597656 -516.8125 95.421875 -546.375 C 115.242188 -575.945312 138.816406 -601.441406 166.140625 -622.859375 C 193.472656 -644.273438 223.757812 -660.734375 257 -672.234375 C 290.25 -683.742188 325.578125 -689.5 362.984375 -689.5 C 385.992188 -689.5 405.726562 -687.738281 422.1875 -684.21875 C 438.65625 -680.707031 452.5625 -676.710938 463.90625 -672.234375 C 475.257812 -667.765625 484.769531 -663.769531 492.4375 -660.25 C 500.113281 -656.738281 506.664062 -654.984375 512.09375 -654.984375 C 518.488281 -654.984375 523.921875 -656.5 528.390625 -659.53125 C 532.867188 -662.570312 536.945312 -666.171875 540.625 -670.328125 C 544.300781 -674.484375 548.375 -678.078125 552.84375 -681.109375 C 557.320312 -684.148438 562.914062 -685.671875 569.625 -685.671875 C 576.65625 -685.671875 582.410156 -683.507812 586.890625 -679.1875 C 591.367188 -674.875 595.207031 -667.445312 598.40625 -656.90625 L 648.265625 -489.5625 C 650.828125 -480.9375 649.867188 -473.1875 645.390625 -466.3125 C 640.910156 -459.4375 634.359375 -455.039062 625.734375 -453.125 C 616.460938 -450.882812 607.988281 -451.519531 600.3125 -455.03125 C 592.644531 -458.550781 586.734375 -465.109375 582.578125 -474.703125 C 565.953125 -513.054688 547.570312 -543.097656 527.4375 -564.828125 C 507.300781 -586.566406 485.804688 -601.988281 462.953125 -611.09375 C 440.097656 -620.207031 416.046875 -624.765625 390.796875 -624.765625 C 356.265625 -624.765625 326.210938 -614.21875 300.640625 -593.125 C 275.066406 -572.03125 255.164062 -542.222656 240.9375 -503.703125 C 226.71875 -465.191406 219.609375 -419.5625 219.609375 -366.8125 C 219.609375 -304.476562 228.640625 -252.050781 246.703125 -209.53125 C 264.765625 -167.019531 289.773438 -134.894531 321.734375 -113.15625 C 353.703125 -91.425781 390.148438 -80.5625 431.078125 -80.5625 C 469.109375 -80.5625 502.984375 -89.828125 532.703125 -108.359375 C 562.429688 -126.898438 586.085938 -153.59375 603.671875 -188.4375 C 608.472656 -197.394531 613.585938 -203.3125 619.015625 -206.1875 C 624.453125 -209.0625 630.367188 -209.859375 636.765625 -208.578125 C 648.585938 -206.335938 654.5 -198.1875 654.5 -184.125 Z M 654.5 -184.125 "/></g></g></g></svg>